# xmcd
#
# Track frame offsets:
# 150
# 18324
# 31827
# 53156
# 71406
# 83592
# 108043
# 122417
# 144888
# 165392
# 199021
# 221457
# 247233
# 281286
# 297600
#
# Disc length: 4313 seconds
#
#
# Revision: 0
# Processed by: cddbd v1.5.2PL0 Copyright (c) Steve Scherf et al.
# Submitted via: FreeRIP 2.60 
#
DISCID=c710d70f
DTITLE=Chicken Train - Dynamic Lifter
DYEAR=2012
DGENRE=Skiffle
TTITLE0=Peck Up A Grub
TTITLE1=Blew My Blues Away
TTITLE2=Smoke That Cigarette
TTITLE3=Mama Don't
TTITLE4=Save me Some
TTITLE5=Cowboy Norms Decline
TTITLE6=Midnight Special
TTITLE7=My Gal
TTITLE8=Love Mechanic
TTITLE9=Black Betty
TTITLE10=Sweet Vaginia
TTITLE11=Pick A Bale Of Cotton
TTITLE12=Chicken Train
TTITLE13=Clyde
TTITLE14=27 Years
EXTD=Live at Pattonga
EXTT0=
EXTT1=
EXTT2=
EXTT3=
EXTT4=
EXTT5=
EXTT6=
EXTT7=
EXTT8=
EXTT9=
EXTT10=
EXTT11=
EXTT12=
EXTT13=
EXTT14=
PLAYORDER=
